HIERARCHY
ROOT Hips
{
	OFFSET 0.00000 0.00000 0.00000
	CHANNELS 6 Xposition Yposition Zposition Zrotation Yrotation Xrotation 
	JOINT LHipJoint
	{
		OFFSET 0 0 0
		CHANNELS 3 Zrotation Yrotation Xrotation
		JOINT LeftUpLeg
		{
			OFFSET 1.46561 -1.72757 0.83774
			CHANNELS 3 Zrotation Yrotation Xrotation
			JOINT LeftLeg
			{
				OFFSET 2.48915 -6.83890 0.00000
				CHANNELS 3 Zrotation Yrotation Xrotation
				JOINT LeftFoot
				{
					OFFSET 2.60555 -7.15868 0.00000
					CHANNELS 3 Zrotation Yrotation Xrotation
					JOINT LeftToeBase
					{
						OFFSET 0.19248 -0.52884 2.26738
						CHANNELS 3 Zrotation Yrotation Xrotation
						End Site
						{
							OFFSET 0.00000 -0.00000 1.17015
						}
					}
				}
			}
		}
	}
	JOINT RHipJoint
	{
		OFFSET 0 0 0
		CHANNELS 3 Zrotation Yrotation Xrotation
		JOINT RightUpLeg
		{
			OFFSET -1.46918 -1.72757 0.83774
			CHANNELS 3 Zrotation Yrotation Xrotation
			JOINT RightLeg
			{
				OFFSET -2.49034 -6.84216 0.00000
				CHANNELS 3 Zrotation Yrotation Xrotation
				JOINT RightFoot
				{
					OFFSET -2.65971 -7.30750 0.00000
					CHANNELS 3 Zrotation Yrotation Xrotation
					JOINT RightToeBase
					{
						OFFSET -0.19227 -0.52827 2.30785
						CHANNELS 3 Zrotation Yrotation Xrotation
						End Site
						{
							OFFSET -0.00000 -0.00000 1.18972
						}
					}
				}
			}
		}
	}
	JOINT LowerBack
	{
		OFFSET 0 0 0
		CHANNELS 3 Zrotation Yrotation Xrotation
		JOINT Spine
		{
			OFFSET 0.02432 2.19909 -0.28000
			CHANNELS 3 Zrotation Yrotation Xrotation
			JOINT Spine1
			{
				OFFSET 0.03714 2.21816 -0.15261
				CHANNELS 3 Zrotation Yrotation Xrotation
				JOINT Neck
				{
					OFFSET 0 0 0
					CHANNELS 3 Zrotation Yrotation Xrotation
					JOINT Neck1
					{
						OFFSET -0.01896 1.56165 0.21681
						CHANNELS 3 Zrotation Yrotation Xrotation
						JOINT Head
						{
							OFFSET 0.02744 1.56009 0.06764
							CHANNELS 3 Zrotation Yrotation Xrotation
							End Site
							{
								OFFSET 0.01212 1.60574 0.00298
							}
						}
					}
				}
				JOINT LeftShoulder
				{
					OFFSET 0 0 0
					CHANNELS 3 Zrotation Yrotation Xrotation
					JOINT LeftArm
					{
						OFFSET 3.05595 1.48048 -0.60794
						CHANNELS 3 Zrotation Yrotation Xrotation
						JOINT LeftForeArm
						{
							OFFSET 5.20607 -0.00000 -0.00000
							CHANNELS 3 Zrotation Yrotation Xrotation
							JOINT LeftHand
							{
								OFFSET 3.39961 -0.00000 0.00000
								CHANNELS 3 Zrotation Yrotation Xrotation
								JOINT LeftFingerBase
								{
									OFFSET 0 0 0
									CHANNELS 3 Zrotation Yrotation Xrotation
									JOINT LeftHandIndex1
									{
										OFFSET 0.51969 -0.00000 0.00000
										CHANNELS 3 Zrotation Yrotation Xrotation
										End Site
										{
											OFFSET 0.41899 -0.00000 0.00000
										}
									}
								}
								JOINT LThumb
								{
									OFFSET 0 0 0
									CHANNELS 3 Zrotation Yrotation Xrotation
									End Site
									{
										OFFSET 0.42539 -0.00000 0.42539
									}
								}
							}
						}
					}
				}
				JOINT RightShoulder
				{
					OFFSET 0 0 0
					CHANNELS 3 Zrotation Yrotation Xrotation
					JOINT RightArm
					{
						OFFSET -2.99052 1.57608 -0.69102
						CHANNELS 3 Zrotation Yrotation Xrotation
						JOINT RightForeArm
						{
							OFFSET -5.32214 -0.00000 0.00000
							CHANNELS 3 Zrotation Yrotation Xrotation
							JOINT RightHand
							{
								OFFSET -3.51208 -0.00000 0.00000
								CHANNELS 3 Zrotation Yrotation Xrotation
								JOINT RightFingerBase
								{
									OFFSET 0 0 0
									CHANNELS 3 Zrotation Yrotation Xrotation
									JOINT RightHandIndex1
									{
										OFFSET -0.58668 -0.00000 0.00000
										CHANNELS 3 Zrotation Yrotation Xrotation
										End Site
										{
											OFFSET -0.47300 -0.00000 0.00000
										}
									}
								}
								JOINT RThumb
								{
									OFFSET 0 0 0
									CHANNELS 3 Zrotation Yrotation Xrotation
									End Site
									{
										OFFSET -0.48022 -0.00000 0.48022
									}
								}
							}
						}
					}
				}
			}
		}
	}
}
MOTION
Frames: 8
Frame Time: .0083333
0.815 17.5408 -13.9765 0 0 0 0 0 0 -21 0 0 0 0 0 0 0 0 0 0 0 0 0 0 21 0 0 0 0 0 0 0 0 0 0 0 0 0 0 0 0 0 0 0 0 0 0 -16 0 0 21 0 0 11 0 0 0 -8 0 0 0 0 0 0 0 0 0 0 0 0 0 0 0 0 0 0 0 0 8 0 0 0 0 0 0 0 0 0 0 0 0 0 0 0 0 0
0.8150 17.5408 -13.9765 -1.4749 -1.9999 6.5306 0.0000 0.0000 0.0000 -17.5812 3.9935 -13.7188 0.8832 5.9909 16.7580 0.3775 0.5667 -11.8247 0.1406 -2.4168 -6.6591 0.0000 0.0000 0.0000 18.4664 2.7626 -13.4131 -1.2482 -7.0835 19.9629 -0.5404 1.7871 -13.3860 -0.3794 -3.9557 10.9521 0.2978 -0.7543 -2.9948 1.8307 -1.1091 3.2520 1.6466 -0.5770 5.0730 -1.8777 1.0278 -14.0369 -0.6465 2.1940 30.3658 0.3971 0.6666 12.3451 0.0000 -0.0000 0.0000 -87.4164 -9.4608 22.5727 8.8413 -14.9071 -1.1589 -0.0000 -0.0000 2.2754 23.7945 -2.7561 -1.2146 -7.1250 0.0000 -0.0000 -2.1450 26.9666 0.9397 0.0000 -0.0000 0.0000 86.8324 7.7635 6.3810 -13.2153 21.6019 -2.5320 0.0000 0.0000 33.4860 -20.0120 -24.7983 8.6852 7.1250 -0.0000 -0.0000 10.3221 -55.8658 -2.7729
0.8162 17.5408 -13.9701 -1.4672 -1.9928 6.5298 0.0000 0.0000 0.0000 -17.6036 4.0363 -13.6981 0.8806 5.9823 16.7330 0.3785 0.5848 -11.8475 0.1457 -2.4602 -6.7794 0.0000 0.0000 0.0000 18.4512 2.7552 -13.3868 -1.2471 -7.0804 19.9538 -0.5412 1.7817 -13.3976 -0.3779 -3.9479 10.9302 0.2850 -0.7571 -3.0233 1.8230 -1.1122 3.2500 1.6453 -0.5789 5.0874 -1.8874 1.0312 -14.0660 -0.6019 2.1900 30.4465 0.4157 0.6681 12.3830 -0.0000 0.0000 0.0000 -87.4431 -9.4879 22.5702 8.8954 -14.9935 -1.1729 -0.0000 -0.0000 2.2877 23.7412 -2.8998 -1.2747 -7.1250 0.0000 -0.0000 -2.1852 26.8109 0.9653 -0.0000 0.0000 0.0000 86.8367 7.7713 6.4140 -13.2587 21.6651 -2.5480 0.0000 0.0000 33.3709 -19.9752 -24.8739 8.6925 7.1250 -0.0000 -0.0000 10.3952 -55.9347 -2.8103
0.8184 17.5416 -13.9646 -1.4797 -1.9193 6.5441 0.0000 0.0000 0.0000 -17.5994 3.9874 -13.6847 0.8798 5.9797 16.7255 0.3766 0.6390 -11.8410 0.1531 -2.5210 -6.9478 0.0000 0.0000 0.0000 18.4636 2.7083 -13.3646 -1.2424 -7.0677 19.9161 -0.5411 1.7495 -13.4028 -0.3795 -3.9566 10.9546 0.2986 -0.7881 -3.0403 1.8365 -1.1547 3.2236 1.6484 -0.5996 5.0707 -1.8776 1.0357 -14.0796 -0.6040 2.1964 30.5276 0.4147 0.6703 12.4189 0.0000 -0.0000 0.0000 -87.4424 -9.5172 22.8228 8.9139 -15.0231 -1.1777 -0.0000 -0.0000 2.0171 23.8251 -2.9991 -1.3235 -7.1250 0.0000 -0.0000 -2.1207 26.7006 0.9423 0.0000 -0.0000 0.0000 86.8161 7.7717 6.3958 -13.2768 21.6914 -2.5547 0.0000 0.0000 33.3521 -19.8984 -24.9338 8.6760 7.1250 -0.0000 -0.0000 10.5031 -55.9796 -2.8514
0.8199 17.5423 -13.9588 -1.5079 -1.8735 6.5524 0.0000 0.0000 0.0000 -17.5781 3.9879 -13.6769 0.8788 5.9762 16.7153 0.3777 0.6509 -11.8633 0.1558 -2.5436 -7.0104 0.0000 0.0000 0.0000 18.4944 2.6997 -13.3292 -1.2384 -7.0566 19.8832 -0.5413 1.6893 -13.4183 -0.3752 -3.9341 10.8912 0.3321 -0.8055 -3.0714 1.8441 -1.1804 3.2188 1.6352 -0.6112 5.0836 -1.8879 1.0409 -14.0831 -0.5779 2.1994 30.5702 0.4270 0.6731 12.4364 0.0000 -0.0000 0.0000 -87.4490 -9.5289 22.9398 8.9919 -15.1474 -1.1980 -0.0000 -0.0000 1.8915 23.8723 -2.9892 -1.3221 -7.1250 0.0000 -0.0000 -2.0848 26.7102 0.9258 0.0000 -0.0000 0.0000 86.8153 7.7838 6.4295 -13.3067 21.7349 -2.5657 0.0000 0.0000 33.2674 -19.9782 -24.8335 8.6809 7.1250 -0.0000 -0.0000 10.3735 -55.8944 -2.7942
0.8215 17.5429 -13.9533 -1.5245 -1.8248 6.5643 0.0000 0.0000 0.0000 -17.5689 3.9755 -13.6728 0.8782 5.9744 16.7102 0.3782 0.6741 -11.8804 0.1605 -2.5815 -7.1156 0.0000 0.0000 0.0000 18.5120 2.6844 -13.2969 -1.2336 -7.0435 19.8444 -0.5413 1.6382 -13.4302 -0.3732 -3.9235 10.8617 0.3519 -0.8235 -3.0992 1.8504 -1.2061 3.2096 1.6283 -0.6233 5.0903 -1.8904 1.0433 -14.0911 -0.5603 2.1991 30.6168 0.4344 0.6742 12.4567 -0.0000 0.0000 0.0000 -87.4524 -9.5556 23.0927 9.0524 -15.2438 -1.2138 -0.0000 -0.0000 1.7322 23.9044 -2.9658 -1.3137 -7.1250 0.0000 -0.0000 -2.0603 26.7351 0.9137 -0.0000 0.0000 0.0000 86.8127 7.8009 6.4387 -13.3319 21.7716 -2.5751 0.0000 0.0000 33.2116 -19.9976 -24.8162 8.6843 7.1250 -0.0000 -0.0000 10.3453 -55.8809 -2.7831
0.8230 17.5435 -13.9481 -1.5429 -1.7764 6.5775 0.0000 0.0000 0.0000 -17.5563 3.9578 -13.6690 0.8777 5.9727 16.7052 0.3787 0.6966 -11.8979 0.1648 -2.6154 -7.2098 0.0000 0.0000 0.0000 18.5327 2.6763 -13.2648 -1.2291 -7.0311 19.8074 -0.5416 1.5785 -13.4473 -0.3708 -3.9114 10.8276 0.3744 -0.8397 -3.1272 1.8563 -1.2296 3.2021 1.6197 -0.6343 5.0988 -1.8951 1.0440 -14.0925 -0.5415 2.1960 30.6500 0.4421 0.6742 12.4702 -0.0000 0.0000 0.0000 -87.4501 -9.5896 23.2574 9.1136 -15.3412 -1.2300 -0.0000 -0.0000 1.5620 23.9368 -2.9118 -1.2918 -7.1250 0.0000 -0.0000 -2.0357 26.7933 0.9000 -0.0000 0.0000 0.0000 86.8134 7.8201 6.4496 -13.3581 21.8096 -2.5848 0.0000 0.0000 33.1593 -20.0221 -24.7983 8.6899 7.1250 -0.0000 -0.0000 10.3116 -55.8678 -2.7705
0.8243 17.5439 -13.9431 -1.5578 -1.7327 6.5914 0.0000 0.0000 0.0000 -17.5466 3.9385 -13.6648 0.8770 5.9705 16.6989 0.3793 0.7176 -11.9158 0.1685 -2.6446 -7.2908 0.0000 0.0000 0.0000 18.5499 2.6760 -13.2365 -1.2255 -7.0212 19.7782 -0.5422 1.5160 -13.4697 -0.3683 -3.8981 10.7901 0.3941 -0.8522 -3.1543 1.8594 -1.2478 3.1961 1.6102 -0.6426 5.1081 -1.9040 1.0421 -14.0879 -0.5178 2.1885 30.6722 0.4516 0.6726 12.4778 -0.0000 0.0000 0.0000 -87.4423 -9.6326 23.4187 9.1722 -15.4345 -1.2456 -0.0000 -0.0000 1.3989 23.9626 -2.8475 -1.2648 -7.1250 0.0000 -0.0000 -2.0161 26.8629 0.8880 -0.0000 0.0000 0.0000 86.8179 7.8376 6.4653 -13.3872 21.8520 -2.5957 0.0000 0.0000 33.1063 -20.0461 -24.7868 8.6974 7.1250 -0.0000 -0.0000 10.2813 -55.8611 -2.7606
